<?xml version="1.0" standalone="no"?><!DOCTYPE svg PUBLIC "-//W3C//DTD SVG 1.1//EN" "http://www.w3.org/Graphics/SVG/1.1/DTD/svg11.dtd"><svg t="1718874770416" class="icon" viewBox="0 0 1024 1024" version="1.1" xmlns="http://www.w3.org/2000/svg" p-id="8585" xmlns:xlink="http://www.w3.org/1999/xlink" width="200" height="200"><path d="M754.65 212.4h-483.8c-77.53 0-140.6 63.07-140.6 140.6v292c0 77.53 63.07 140.6 140.6 140.6h483.8c77.52 0 140.6-63.07 140.6-140.6V353c0-77.53-63.08-140.6-140.6-140.6z m80.6 432.6a80.7 80.7 0 0 1-80.6 80.6h-483.8a80.7 80.7 0 0 1-80.6-80.6V353a80.7 80.7 0 0 1 80.6-80.6h483.8a80.7 80.7 0 0 1 80.6 80.6z" p-id="8586"></path><path d="M399.08 515.56a107.41 107.41 0 0 0-13.95-11.19l5.21-4.9q2.76-2.45 7.2-9.19a85.23 85.23 0 0 0 7.66-14.56 53.62 53.62 0 0 0 3.83-17q0.62-13.49-4.75-23A53.09 53.09 0 0 0 391 420a65.67 65.67 0 0 0-17.16-9.81q-9.19-3.51-23.9-3.52h-84.61q-11.64 0-19 2.6t-10.72 6q-3.37 3.38-5.67 10.42a54.68 54.68 0 0 0-2.3 16.85v128.63a74.94 74.94 0 0 0 1.23 13.48 30.86 30.86 0 0 0 5.21 12.41q4 5.67 13.48 8.27a63.64 63.64 0 0 0 16.55 2.61h72.61q22.36 0 36.46-4.14t21.91-12.41a62.26 62.26 0 0 0 12.1-18.23 65.1 65.1 0 0 0 5.21-19.76q0.93-13.8-3.83-23.44t-9.49-14.4z m-135-61.74c0-4.09 1-6.95 2.91-8.58s5.46-2.45 10.57-2.45h66.18q9.5 0 14.55 4.59a27.07 27.07 0 0 1 6.9 8.89q1.21 3.68 1.07 11.33a23.8 23.8 0 0 1-5.67 14.56q-5.52 6.88-17.16 6.89h-79.32zM364.3 564.58q-5.52 7.2-15.93 7.2h-74.46c-4.09 0-6.74-0.87-8-2.6s-1.83-5.57-1.83-11.49v-33.1h83.64a21.93 21.93 0 0 1 15.94 6.29q6.44 6.29 6.28 16.39a28.4 28.4 0 0 1-5.64 17.31zM589.5 405.65H442.74q-5.82 0-11.49 4.74t-5.67 14.25q0 9.19 5.51 14.25t11.65 5.11h52.7v149.16q0 6.44 6.59 12t16.39 5.06q9.8-0.46 13.94-6.44t4.14-10.57V444h53a16.69 16.69 0 0 0 13-6.13 20 20 0 0 0 5.2-13.94 18 18 0 0 0-5.51-13 17.64 17.64 0 0 0-12.69-5.28zM791.58 407.4a19.77 19.77 0 0 0-14.87-5.21q-8.58 0.45-13.78 5.82a16.9 16.9 0 0 0-5.21 12.1v97.74c0 2.66-0.05 4.5-0.16 5.52s-0.45 1.64-1.07 1.84-1.68-0.46-3.21-2a18.57 18.57 0 0 1-3.53-4.75l-69.55-102a40.39 40.39 0 0 0-13.2-11.52q-7.63-4.12-18-2.94-9.19 1.23-14.86 5.83a29.53 29.53 0 0 0-8.74 12.1 46.52 46.52 0 0 0-3.06 17.62V588q0 7.35 6.13 14.25a15.63 15.63 0 0 0 15.16 5.36q9-1.53 13.18-7.2A20.58 20.58 0 0 0 660.9 588V454.74a1 1 0 0 1 0.61-0.92c0.41-0.2 1.12 0.1 2.14 0.92l1.53 2.45 91.93 137.57A33.38 33.38 0 0 0 766 604q6.12 4.6 15 2.91t12.87-8.91q4-7.2 4-18.23V419.5q-0.01-6.44-6.29-12.1z" p-id="8587"></path></svg>