<?xml version="1.0" standalone="no"?><!DOCTYPE svg PUBLIC "-//W3C//DTD SVG 1.1//EN" "http://www.w3.org/Graphics/SVG/1.1/DTD/svg11.dtd"><svg t="1718248376390" class="icon" viewBox="0 0 1024 1024" version="1.1" xmlns="http://www.w3.org/2000/svg" p-id="14172" xmlns:xlink="http://www.w3.org/1999/xlink" width="200" height="200"><path d="M475.428571 630.125714h73.142858c20.48 0 36.571429-17.334857 36.571428-39.350857 0-22.089143-16.091429-39.424-36.571428-39.424h-73.142858c-20.48 0-36.571429 17.334857-36.571428 39.424 0 22.016 16.091429 39.350857 36.571428 39.350857z m0 157.549715h73.142858c20.48 0 36.571429-17.334857 36.571428-39.350858 0-22.089143-16.091429-39.424-36.571428-39.424h-73.142858c-20.48 0-36.571429 17.334857-36.571428 39.424 0 22.016 16.091429 39.350857 36.571428 39.350858zM877.714286 78.774857h-146.285715V39.350857C731.428571 17.334857 715.337143 0 694.857143 0S658.285714 17.334857 658.285714 39.350857v39.424H365.714286V39.350857C365.714286 17.334857 349.622857 0 329.142857 0S292.571429 17.334857 292.571429 39.350857v39.424H146.285714c-80.457143 0-146.285714 70.948571-146.285714 157.549714v630.125715C0 953.124571 65.828571 1024 146.285714 1024h731.428572c80.457143 0 146.285714-70.948571 146.285714-157.549714V236.324571c0-86.674286-65.828571-157.549714-146.285714-157.549714z m73.142857 787.748572c0 43.227429-32.914286 78.701714-73.142857 78.701714H146.285714c-40.228571 0-73.142857-35.474286-73.142857-78.774857V393.874286h877.714286v472.576z m0-551.497143H73.142857V236.397714c0-43.373714 32.914286-78.774857 73.142857-78.774857h146.285715v39.350857c0 22.089143 16.091429 39.424 36.571428 39.424s36.571429-17.334857 36.571429-39.424v-39.350857h292.571428v39.350857c0 22.089143 16.091429 39.424 36.571429 39.424s36.571429-17.334857 36.571428-39.424v-39.350857h146.285715c40.228571 0 73.142857 35.401143 73.142857 78.774857v78.774857zM256 787.748571h73.142857c20.48 0 36.571429-17.334857 36.571429-39.350857 0-22.089143-16.091429-39.424-36.571429-39.424h-73.142857c-20.48 0-36.571429 17.334857-36.571429 39.424 0 22.016 16.091429 39.350857 36.571429 39.350857z m438.857143-157.549714h73.142857c20.48 0 36.571429-17.334857 36.571429-39.350857 0-22.089143-16.091429-39.424-36.571429-39.424h-73.142857c-20.48 0-36.571429 17.334857-36.571429 39.424 0 22.016 16.091429 39.350857 36.571429 39.350857z m-438.857143 0h73.142857c20.48 0 36.571429-17.334857 36.571429-39.350857 0-22.089143-16.091429-39.424-36.571429-39.424h-73.142857c-20.48 0-36.571429 17.334857-36.571429 39.424 0 22.016 16.091429 39.350857 36.571429 39.350857z m438.857143 157.549714h73.142857c20.48 0 36.571429-17.334857 36.571429-39.350857 0-22.089143-16.091429-39.424-36.571429-39.424h-73.142857c-20.48 0-36.571429 17.334857-36.571429 39.424 0 22.016 16.091429 39.350857 36.571429 39.350857z" fill="#66676A" p-id="14173"></path></svg>